# xmcd
#
# Track frame offsets:
#	150
#	7648
#	11202
#	16406
#	22068
#	25882
#	29858
#	37388
#	41405
#	44512
#	46833
#	50725
#	55299
#	62496
#	65634
#	69625
#	73575
#	79002
#	82421
#	86116
#	89686
#	94947
#	104865
#	110126
#	116875
#	120965
#	124717
#	131320
#	134942
#	143408
#	147202
#	157432
#	161449
#	164603
#	174682
#	183278
#	187144
#	190932
#	197993
#	201578
#	210960
#	214941
#	218870
#
# Disc length: 3030 seconds
#
# Revision: 1
# Processed by: cddbd v1.5.1PL2 Copyright (c) Steve Scherf et al.
# Submitted via: audiograbber 1.83.01
#
DISCID=a80bd42b
DTITLE=Craig Duncan - Famous Fiddling Tunes
DYEAR=1900
DGENRE=
TTITLE0=Arkansas Traveler
TTITLE1=Back Up and Push
TTITLE2=The Blarney Pilgrim
TTITLE3=Beaumont Rag
TTITLE4=Bill Cheatham
TTITLE5=Billy in the Lowground
TTITLE6=Blackberry Blossom
TTITLE7=Bonaparte's Retreat
TTITLE8=Cottoneyed Joe #1
TTITLE9=Cottoneyed Joe #2
TTITLE10=Cripple Creek
TTITLE11=Down Yonder
TTITLE12=Dill Pickle Rag
TTITLE13=Drowsy Maggie
TTITLE14=Durham's Bull
TTITLE15=Eighth of January
TTITLE16=Fisher's Hornpipe
TTITLE17=Fire on the Mountain
TTITLE18=Garry Owen
TTITLE19=Haste to the Wedding
TTITLE20=Jolie Blond
TTITLE21=Maidens Prayer
TTITLE22=Merrily Kiss the Quaker
TTITLE23=Monaghan Jig
TTITLE24=Miss McLeod's Reel
TTITLE25=Morrison's Jig
TTITLE26=Mississippi Sawyer
TTITLE27=Old Joe Clark
TTITLE28=Ragtime Annie
TTITLE29=Red Wing
TTITLE30=Roxanna Waltz
TTITLE31=St.Anne's Reel
TTITLE32=Sally Ann
TTITLE33=Sally Goodin
TTITLE34=Sally Johnson
TTITLE35=Salt Creek
TTITLE36=Smash the Windows
TTITLE37=Soldier's Joy
TTITLE38=Swallowtail Jig
TTITLE39=Star of the County Down
TTITLE40=Temperance Reel
TTITLE41=Turkey in the Straw
TTITLE42=Westphalia Waltz
EXTD=
EXTT0=
EXTT1=
EXTT2=
EXTT3=
EXTT4=
EXTT5=
EXTT6=
EXTT7=
EXTT8=
EXTT9=
EXTT10=
EXTT11=
EXTT12=
EXTT13=
EXTT14=
EXTT15=
EXTT16=
EXTT17=
EXTT18=
EXTT19=
EXTT20=
EXTT21=
EXTT22=
EXTT23=
EXTT24=
EXTT25=
EXTT26=
EXTT27=
EXTT28=
EXTT29=
EXTT30=
EXTT31=
EXTT32=
EXTT33=
EXTT34=
EXTT35=
EXTT36=
EXTT37=
EXTT38=
EXTT39=
EXTT40=
EXTT41=
EXTT42=
PLAYORDER=
